<?xml version="1.0" encoding="UTF-8"?>
<svg xmlns="http://www.w3.org/2000/svg" viewBox="0 0 16 16" preserveAspectRatio="xMidYMid meet">
  <path d="M2 0h1v1H2z" shape-rendering="crispEdges" style="fill:#04edde;opacity:254"/>
  <path d="M3 0h1v1H3z" shape-rendering="crispEdges" style="fill:#02e9d5;opacity:255"/>
  <path d="M4 0h1v1H4zm1 0h1v1H5zm1 0h1v1H6z" shape-rendering="crispEdges" style="fill:#01ead4;opacity:255"/>
  <path d="M7 0h1v1H7z" shape-rendering="crispEdges" style="fill:#01f8e7;opacity:255"/>
  <path d="M8 0h1v1H8zm1 0h1v1H9zm1 0h1v1h-1z" shape-rendering="crispEdges" style="fill:#01ffec;opacity:255"/>
  <path d="M11 0h1v1h-1z" shape-rendering="crispEdges" style="fill:#02ffed;opacity:255"/>
  <path d="M12 0h1v1h-1z" shape-rendering="crispEdges" style="fill:#04ffec;opacity:255"/>
  <path d="M13 0h1v1h-1z" shape-rendering="crispEdges" style="fill:#04fff0;opacity:254"/>
  <path d="M1 1h1v1H1z" shape-rendering="crispEdges" style="fill:#01e8d2;opacity:255"/>
  <path d="M2 1h1v1H2z" shape-rendering="crispEdges" style="fill:#00e4c8;opacity:255"/>
  <path d="M3 1h1v1H3z" shape-rendering="crispEdges" style="fill:#00e3c6;opacity:255"/>
  <path d="M4 1h1v1H4z" shape-rendering="crispEdges" style="fill:#00e4c8;opacity:255"/>
  <path d="M5 1h1v1H5z" shape-rendering="crispEdges" style="fill:#00e3c6;opacity:255"/>
  <path d="M6 1h1v1H6zm1 0h1v1H7z" shape-rendering="crispEdges" style="fill:#00e4c8;opacity:255"/>
  <path d="M8 1h1v1H8z" shape-rendering="crispEdges" style="fill:#00f7dd;opacity:255"/>
  <path d="M9 1h1v1H9zm1 0h1v1h-1zm1 0h1v1h-1zm1 0h1v1h-1zm1 0h1v1h-1z" shape-rendering="crispEdges" style="fill:#00ffe3;opacity:255"/>
  <path d="M14 1h1v1h-1z" shape-rendering="crispEdges" style="fill:#02ffed;opacity:255"/>
  <path d="M0 2h1v1H0z" shape-rendering="crispEdges" style="fill:#04ddd2;opacity:255"/>
  <path d="M1 2h1v1H1zm1 0h1v1H2zm1 0h1v1H3z" shape-rendering="crispEdges" style="fill:#00cebe;opacity:255"/>
  <path d="M4 2h1v1H4z" shape-rendering="crispEdges" style="fill:#00cdbe;opacity:255"/>
  <path d="M5 2h1v1H5z" shape-rendering="crispEdges" style="fill:#00cebe;opacity:255"/>
  <path d="M6 2h1v1H6z" shape-rendering="crispEdges" style="fill:#00cdbd;opacity:255"/>
  <path d="M7 2h1v1H7z" shape-rendering="crispEdges" style="fill:#00cebd;opacity:255"/>
  <path d="M8 2h1v1H8z" shape-rendering="crispEdges" style="fill:#00d0be;opacity:255"/>
  <path d="M9 2h1v1H9z" shape-rendering="crispEdges" style="fill:#0095a2;opacity:255"/>
  <path d="M10 2h1v1h-1z" shape-rendering="crispEdges" style="fill:#00e3da;opacity:255"/>
  <path d="M11 2h1v1h-1z" shape-rendering="crispEdges" style="fill:#00e4dd;opacity:255"/>
  <path d="M12 2h1v1h-1z" shape-rendering="crispEdges" style="fill:#00e4db;opacity:255"/>
  <path d="M13 2h1v1h-1zm1 0h1v1h-1z" shape-rendering="crispEdges" style="fill:#00e4dd;opacity:255"/>
  <path d="M15 2h1v1h-1z" shape-rendering="crispEdges" style="fill:#04f4ed;opacity:254"/>
  <path d="M0 3h1v1H0z" shape-rendering="crispEdges" style="fill:#01d1b9;opacity:255"/>
  <path d="M1 3h1v1H1zm1 0h1v1H2zm1 0h1v1H3z" shape-rendering="crispEdges" style="fill:#00c6aa;opacity:255"/>
  <path d="M4 3h1v1H4z" shape-rendering="crispEdges" style="fill:#05a092;opacity:255"/>
  <path d="M5 3h1v1H5zm1 0h1v1H6zm1 0h1v1H7zm1 0h1v1H8z" shape-rendering="crispEdges" style="fill:#00c6aa;opacity:255"/>
  <path d="M9 3h1v1H9z" shape-rendering="crispEdges" style="fill:#008c88;opacity:255"/>
  <path d="M10 3h1v1h-1z" shape-rendering="crispEdges" style="fill:#004363;opacity:255"/>
  <path d="M11 3h1v1h-1z" shape-rendering="crispEdges" style="fill:#00e3c6;opacity:255"/>
  <path d="M12 3h1v1h-1z" shape-rendering="crispEdges" style="fill:#00e4c8;opacity:255"/>
  <path d="M13 3h1v1h-1z" shape-rendering="crispEdges" style="fill:#00e3c6;opacity:255"/>
  <path d="M14 3h1v1h-1z" shape-rendering="crispEdges" style="fill:#00e4c8;opacity:255"/>
  <path d="M15 3h1v1h-1z" shape-rendering="crispEdges" style="fill:#01e8d2;opacity:255"/>
  <path d="M0 4h1v1H0z" shape-rendering="crispEdges" style="fill:#02cea1;opacity:255"/>
  <path d="M1 4h1v1H1zm1 0h1v1H2z" shape-rendering="crispEdges" style="fill:#00c68f;opacity:255"/>
  <path d="M3 4h1v1H3z" shape-rendering="crispEdges" style="fill:#02796e;opacity:255"/>
  <path d="M4 4h1v1H4z" shape-rendering="crispEdges" style="fill:#00c58f;opacity:255"/>
  <path d="M5 4h1v1H5z" shape-rendering="crispEdges" style="fill:#024959;opacity:255"/>
  <path d="M6 4h1v1H6zm1 0h1v1H7zm1 0h1v1H8zm1 0h1v1H9z" shape-rendering="crispEdges" style="fill:#00c68f;opacity:255"/>
  <path d="M10 4h1v1h-1z" shape-rendering="crispEdges" style="fill:#001542;opacity:255"/>
  <path d="M11 4h1v1h-1z" shape-rendering="crispEdges" style="fill:#016b70;opacity:255"/>
  <path d="M12 4h1v1h-1zm1 0h1v1h-1z" shape-rendering="crispEdges" style="fill:#00e3ac;opacity:255"/>
  <path d="M14 4h1v1h-1z" shape-rendering="crispEdges" style="fill:#00e3ab;opacity:255"/>
  <path d="M15 4h1v1h-1z" shape-rendering="crispEdges" style="fill:#01e4b9;opacity:255"/>
  <path d="M0 5h1v1H0z" shape-rendering="crispEdges" style="fill:#00cd9b;opacity:255"/>
  <path d="M1 5h1v1H1z" shape-rendering="crispEdges" style="fill:#00c58c;opacity:255"/>
  <path d="M2 5h1v1H2z" shape-rendering="crispEdges" style="fill:#00c68e;opacity:255"/>
  <path d="M3 5h1v1H3z" shape-rendering="crispEdges" style="fill:#00bd8b;opacity:255"/>
  <path d="M4 5h1v1H4z" shape-rendering="crispEdges" style="fill:#012247;opacity:255"/>
  <path d="M5 5h1v1H5z" shape-rendering="crispEdges" style="fill:#00a57e;opacity:255"/>
  <path d="M6 5h1v1H6z" shape-rendering="crispEdges" style="fill:#012b4b;opacity:255"/>
  <path d="M7 5h1v1H7z" shape-rendering="crispEdges" style="fill:#00bc87;opacity:255"/>
  <path d="M8 5h1v1H8z" shape-rendering="crispEdges" style="fill:#00c68e;opacity:255"/>
  <path d="M9 5h1v1H9z" shape-rendering="crispEdges" style="fill:#00c58c;opacity:255"/>
  <path d="M10 5h1v1h-1z" shape-rendering="crispEdges" style="fill:#00324e;opacity:255"/>
  <path d="M11 5h1v1h-1z" shape-rendering="crispEdges" style="fill:#000039;opacity:255"/>
  <path d="M12 5h1v1h-1z" shape-rendering="crispEdges" style="fill:#00c497;opacity:255"/>
  <path d="M13 5h1v1h-1z" shape-rendering="crispEdges" style="fill:#00c9a4;opacity:255"/>
  <path d="M14 5h1v1h-1z" shape-rendering="crispEdges" style="fill:#00c8a5;opacity:255"/>
  <path d="M15 5h1v1h-1z" shape-rendering="crispEdges" style="fill:#00d5b4;opacity:255"/>
  <path d="M0 6h1v1H0z" shape-rendering="crispEdges" style="fill:#00b884;opacity:255"/>
  <path d="M1 6h1v1H1zm1 0h1v1H2zm1 0h1v1H3z" shape-rendering="crispEdges" style="fill:#00aa71;opacity:255"/>
  <path d="M4 6h1v1H4z" shape-rendering="crispEdges" style="fill:#019e6d;opacity:255"/>
  <path d="M5 6h1v1H5z" shape-rendering="crispEdges" style="fill:#00073b;opacity:255"/>
  <path d="M6 6h1v1H6z" shape-rendering="crispEdges" style="fill:#006259;opacity:255"/>
  <path d="M7 6h1v1H7z" shape-rendering="crispEdges" style="fill:#001540;opacity:255"/>
  <path d="M8 6h1v1H8z" shape-rendering="crispEdges" style="fill:#00996b;opacity:255"/>
  <path d="M9 6h1v1H9z" shape-rendering="crispEdges" style="fill:#00aa71;opacity:255"/>
  <path d="M10 6h1v1h-1z" shape-rendering="crispEdges" style="fill:#00414e;opacity:255"/>
  <path d="M11 6h1v1h-1z" shape-rendering="crispEdges" style="fill:#000039;opacity:255"/>
  <path d="M12 6h1v1h-1z" shape-rendering="crispEdges" style="fill:#024656;opacity:255"/>
  <path d="M13 6h1v1h-1z" shape-rendering="crispEdges" style="fill:#00c68f;opacity:255"/>
  <path d="M14 6h1v1h-1z" shape-rendering="crispEdges" style="fill:#00c68e;opacity:255"/>
  <path d="M15 6h1v1h-1z" shape-rendering="crispEdges" style="fill:#00cda2;opacity:255"/>
  <path d="M0 7h1v1H0z" shape-rendering="crispEdges" style="fill:#00b581;opacity:255"/>
  <path d="M1 7h1v1H1z" shape-rendering="crispEdges" style="fill:#00aa71;opacity:255"/>
  <path d="M2 7h1v1H2z" shape-rendering="crispEdges" style="fill:#00aa72;opacity:255"/>
  <path d="M3 7h1v1H3z" shape-rendering="crispEdges" style="fill:#00aa71;opacity:255"/>
  <path d="M4 7h1v1H4z" shape-rendering="crispEdges" style="fill:#00aa72;opacity:255"/>
  <path d="M5 7h1v1H5z" shape-rendering="crispEdges" style="fill:#018464;opacity:255"/>
  <path d="M6 7h1v1H6z" shape-rendering="crispEdges" style="fill:#000139;opacity:255"/>
  <path d="M7 7h1v1H7z" shape-rendering="crispEdges" style="fill:#00043a;opacity:255"/>
  <path d="M8 7h1v1H8z" shape-rendering="crispEdges" style="fill:#00033a;opacity:255"/>
  <path d="M9 7h1v1H9z" shape-rendering="crispEdges" style="fill:#006d5d;opacity:255"/>
  <path d="M10 7h1v1h-1z" shape-rendering="crispEdges" style="fill:#002746;opacity:255"/>
  <path d="M11 7h1v1h-1z" shape-rendering="crispEdges" style="fill:#000039;opacity:255"/>
  <path d="M12 7h1v1h-1z" shape-rendering="crispEdges" style="fill:#00023a;opacity:255"/>
  <path d="M13 7h1v1h-1z" shape-rendering="crispEdges" style="fill:#00c378;opacity:255"/>
  <path d="M14 7h1v1h-1z" shape-rendering="crispEdges" style="fill:#00c67b;opacity:255"/>
  <path d="M15 7h1v1h-1z" shape-rendering="crispEdges" style="fill:#00cd8d;opacity:255"/>
  <path d="M0 8h1v1H0z" shape-rendering="crispEdges" style="fill:#00b47f;opacity:255"/>
  <path d="M1 8h1v1H1z" shape-rendering="crispEdges" style="fill:#00a771;opacity:255"/>
  <path d="M2 8h1v1H2zm1 0h1v1H3zm1 0h1v1H4zm1 0h1v1H5z" shape-rendering="crispEdges" style="fill:#00aa71;opacity:255"/>
  <path d="M6 8h1v1H6z" shape-rendering="crispEdges" style="fill:#017361;opacity:255"/>
  <path d="M7 8h1v1H7z" shape-rendering="crispEdges" style="fill:#000139;opacity:255"/>
  <path d="M8 8h1v1H8zm1 0h1v1H9zm1 0h1v1h-1zm1 0h1v1h-1z" shape-rendering="crispEdges" style="fill:#000039;opacity:255"/>
  <path d="M12 8h1v1h-1z" shape-rendering="crispEdges" style="fill:#000139;opacity:255"/>
  <path d="M13 8h1v1h-1z" shape-rendering="crispEdges" style="fill:#00aa71;opacity:255"/>
  <path d="M14 8h1v1h-1z" shape-rendering="crispEdges" style="fill:#00ac71;opacity:255"/>
  <path d="M15 8h1v1h-1z" shape-rendering="crispEdges" style="fill:#00ba82;opacity:255"/>
  <path d="M0 9h1v1H0z" shape-rendering="crispEdges" style="fill:#00b37e;opacity:255"/>
  <path d="M1 9h1v1H1z" shape-rendering="crispEdges" style="fill:#00a071;opacity:255"/>
  <path d="M2 9h1v1H2z" shape-rendering="crispEdges" style="fill:#007264;opacity:255"/>
  <path d="M3 9h1v1H3zm1 0h1v1H4z" shape-rendering="crispEdges" style="fill:#009371;opacity:255"/>
  <path d="M5 9h1v1H5zm1 0h1v1H6z" shape-rendering="crispEdges" style="fill:#009271;opacity:255"/>
  <path d="M7 9h1v1H7z" shape-rendering="crispEdges" style="fill:#006c63;opacity:255"/>
  <path d="M8 9h1v1H8z" shape-rendering="crispEdges" style="fill:#00063b;opacity:255"/>
  <path d="M9 9h1v1H9zm1 0h1v1h-1zm1 0h1v1h-1z" shape-rendering="crispEdges" style="fill:#000039;opacity:255"/>
  <path d="M12 9h1v1h-1z" shape-rendering="crispEdges" style="fill:#00023a;opacity:255"/>
  <path d="M13 9h1v1h-1zm1 0h1v1h-1z" shape-rendering="crispEdges" style="fill:#00aa73;opacity:255"/>
  <path d="M15 9h1v1h-1z" shape-rendering="crispEdges" style="fill:#00b37e;opacity:255"/>
  <path d="M0 10h1v1H0z" shape-rendering="crispEdges" style="fill:#00aa83;opacity:255"/>
  <path d="M1 10h1v1H1z" shape-rendering="crispEdges" style="fill:#00a279;opacity:255"/>
  <path d="M2 10h1v1H2z" shape-rendering="crispEdges" style="fill:#016764;opacity:255"/>
  <path d="M3 10h1v1H3z" shape-rendering="crispEdges" style="fill:#001a43;opacity:255"/>
  <path d="M4 10h1v1H4z" shape-rendering="crispEdges" style="fill:#004855;opacity:255"/>
  <path d="M5 10h1v1H5z" shape-rendering="crispEdges" style="fill:#006962;opacity:255"/>
  <path d="M6 10h1v1H6z" shape-rendering="crispEdges" style="fill:#006661;opacity:255"/>
  <path d="M7 10h1v1H7z" shape-rendering="crispEdges" style="fill:#003e51;opacity:255"/>
  <path d="M8 10h1v1H8z" shape-rendering="crispEdges" style="fill:#000a3d;opacity:255"/>
  <path d="M9 10h1v1H9zm1 0h1v1h-1zm1 0h1v1h-1zm1 0h1v1h-1z" shape-rendering="crispEdges" style="fill:#000039;opacity:255"/>
  <path d="M13 10h1v1h-1z" shape-rendering="crispEdges" style="fill:#008e71;opacity:255"/>
  <path d="M14 10h1v1h-1z" shape-rendering="crispEdges" style="fill:#00a279;opacity:255"/>
  <path d="M15 10h1v1h-1z" shape-rendering="crispEdges" style="fill:#00ab7d;opacity:255"/>
  <path d="M0 11h1v1H0z" shape-rendering="crispEdges" style="fill:#019c7d;opacity:255"/>
  <path d="M1 11h1v1H1z" shape-rendering="crispEdges" style="fill:#008e71;opacity:255"/>
  <path d="M2 11h1v1H2z" shape-rendering="crispEdges" style="fill:#009071;opacity:255"/>
  <path d="M3 11h1v1H3z" shape-rendering="crispEdges" style="fill:#007266;opacity:255"/>
  <path d="M4 11h1v1H4z" shape-rendering="crispEdges" style="fill:#000139;opacity:255"/>
  <path d="M5 11h1v1H5zm1 0h1v1H6zm1 0h1v1H7zm1 0h1v1H8zm1 0h1v1H9zm1 0h1v1h-1zm1 0h1v1h-1zm1 0h1v1h-1z" shape-rendering="crispEdges" style="fill:#000039;opacity:255"/>
  <path d="M13 11h1v1h-1z" shape-rendering="crispEdges" style="fill:#002648;opacity:255"/>
  <path d="M14 11h1v1h-1z" shape-rendering="crispEdges" style="fill:#009071;opacity:255"/>
  <path d="M15 11h1v1h-1z" shape-rendering="crispEdges" style="fill:#009676;opacity:255"/>
  <path d="M0 12h1v1H0z" shape-rendering="crispEdges" style="fill:#009a79;opacity:255"/>
  <path d="M1 12h1v1H1zm1 0h1v1H2zm1 0h1v1H3z" shape-rendering="crispEdges" style="fill:#008e71;opacity:255"/>
  <path d="M4 12h1v1H4z" shape-rendering="crispEdges" style="fill:#008d71;opacity:255"/>
  <path d="M5 12h1v1H5z" shape-rendering="crispEdges" style="fill:#004855;opacity:255"/>
  <path d="M6 12h1v1H6zm1 0h1v1H7zm1 0h1v1H8zm1 0h1v1H9z" shape-rendering="crispEdges" style="fill:#000039;opacity:255"/>
  <path d="M10 12h1v1h-1z" shape-rendering="crispEdges" style="fill:#004755;opacity:255"/>
  <path d="M11 12h1v1h-1z" shape-rendering="crispEdges" style="fill:#008d71;opacity:255"/>
  <path d="M12 12h1v1h-1z" shape-rendering="crispEdges" style="fill:#008b70;opacity:255"/>
  <path d="M13 12h1v1h-1z" shape-rendering="crispEdges" style="fill:#001240;opacity:255"/>
  <path d="M14 12h1v1h-1z" shape-rendering="crispEdges" style="fill:#008e71;opacity:255"/>
  <path d="M15 12h1v1h-1z" shape-rendering="crispEdges" style="fill:#009674;opacity:255"/>
  <path d="M0 13h1v1H0z" shape-rendering="crispEdges" style="fill:#009676;opacity:255"/>
  <path d="M1 13h1v1H1z" shape-rendering="crispEdges" style="fill:#008d71;opacity:255"/>
  <path d="M2 13h1v1H2z" shape-rendering="crispEdges" style="fill:#008e71;opacity:255"/>
  <path d="M3 13h1v1H3z" shape-rendering="crispEdges" style="fill:#008c71;opacity:255"/>
  <path d="M4 13h1v1H4z" shape-rendering="crispEdges" style="fill:#008d71;opacity:255"/>
  <path d="M5 13h1v1H5z" shape-rendering="crispEdges" style="fill:#008c71;opacity:255"/>
  <path d="M6 13h1v1H6z" shape-rendering="crispEdges" style="fill:#008e71;opacity:255"/>
  <path d="M7 13h1v1H7z" shape-rendering="crispEdges" style="fill:#008b71;opacity:255"/>
  <path d="M8 13h1v1H8z" shape-rendering="crispEdges" style="fill:#008c71;opacity:255"/>
  <path d="M9 13h1v1H9zm1 0h1v1h-1z" shape-rendering="crispEdges" style="fill:#008b71;opacity:255"/>
  <path d="M11 13h1v1h-1z" shape-rendering="crispEdges" style="fill:#008a71;opacity:255"/>
  <path d="M12 13h1v1h-1z" shape-rendering="crispEdges" style="fill:#008b71;opacity:255"/>
  <path d="M13 13h1v1h-1z" shape-rendering="crispEdges" style="fill:#008a71;opacity:255"/>
  <path d="M14 13h1v1h-1z" shape-rendering="crispEdges" style="fill:#008e71;opacity:255"/>
  <path d="M15 13h1v1h-1z" shape-rendering="crispEdges" style="fill:#00a581;opacity:254"/>
  <path d="M1 14h1v1H1zm1 0h1v1H2zm1 0h1v1H3z" shape-rendering="crispEdges" style="fill:#007a71;opacity:255"/>
  <path d="M4 14h1v1H4zm1 0h1v1H5z" shape-rendering="crispEdges" style="fill:#007772;opacity:255"/>
  <path d="M6 14h1v1H6z" shape-rendering="crispEdges" style="fill:#007672;opacity:255"/>
  <path d="M7 14h1v1H7z" shape-rendering="crispEdges" style="fill:#007772;opacity:255"/>
  <path d="M8 14h1v1H8zm1 0h1v1H9zm1 0h1v1h-1z" shape-rendering="crispEdges" style="fill:#007a71;opacity:255"/>
  <path d="M11 14h1v1h-1z" shape-rendering="crispEdges" style="fill:#007e75;opacity:255"/>
  <path d="M12 14h1v1h-1z" shape-rendering="crispEdges" style="fill:#008277;opacity:255"/>
  <path d="M13 14h1v1h-1zm1 0h1v1h-1z" shape-rendering="crispEdges" style="fill:#008478;opacity:255"/>
  <path d="M2 15h1v1H2z" shape-rendering="crispEdges" style="fill:#007772;opacity:255"/>
  <path d="M3 15h1v1H3z" shape-rendering="crispEdges" style="fill:#007672;opacity:255"/>
  <path d="M4 15h1v1H4z" shape-rendering="crispEdges" style="fill:#007271;opacity:255"/>
  <path d="M5 15h1v1H5z" shape-rendering="crispEdges" style="fill:#007171;opacity:255"/>
  <path d="M6 15h1v1H6z" shape-rendering="crispEdges" style="fill:#007271;opacity:255"/>
  <path d="M7 15h1v1H7z" shape-rendering="crispEdges" style="fill:#007171;opacity:255"/>
  <path d="M8 15h1v1H8z" shape-rendering="crispEdges" style="fill:#007371;opacity:255"/>
  <path d="M9 15h1v1H9zm1 0h1v1h-1z" shape-rendering="crispEdges" style="fill:#007271;opacity:255"/>
  <path d="M11 15h1v1h-1z" shape-rendering="crispEdges" style="fill:#007171;opacity:255"/>
  <path d="M12 15h1v1h-1z" shape-rendering="crispEdges" style="fill:#007271;opacity:255"/>
  <path d="M13 15h1v1h-1z" shape-rendering="crispEdges" style="fill:#007171;opacity:255"/>
</svg>
