<?xml version="1.0" encoding="UTF-8"?>
<svg xmlns="http://www.w3.org/2000/svg" viewBox="0 0 32 32" preserveAspectRatio="xMidYMid meet">
  <path fill="#00aa80" fill-rule="evenodd" d="M5 32h22v-1h2v-1h1v-1h1v-2h1V5h-1V3h-1V2h-1V1h-2V0H5v1H3v1H2v1H1v2H0v22h1v2h1v1h1v1h2v1z"></path>
  <path fill="#009580" d="M26 31v1h-3v-1h3z"></path>
  <path fill="#0ff" d="M6 0v1H5V0h1z"></path>
  <path fill="#00eaea" d="M14 0v1H6V0h8z"></path>
  <path fill="#00ffea" d="M15 0v1h1V0h4v1h2V0h1v1h2v1H15V1h-1V0h1z"></path>
  <path fill="#0ff" d="M16 0v1h-1V0h1zm6 0v1h-2V0h2zm4 0v1h2v1h-3V1h-2V0h3z"></path>
  <path fill="#15ffff" d="M27 0v1h-1V0h1z"></path>
  <path fill="#00ead5" d="M9 1v1H5v1H4V2h1V1h4z"></path>
  <path fill="#00eaea" d="M5 1v1H4v1H3v1H2V3h1V2h1V1h1z"></path>
  <path fill="#0ff" d="M4 1v1H3v1H2V2h1V1h1z"></path>
  <path fill="#00d5d5" d="M14 1v1h1v2H4V3h1V2h4V1h5z"></path>
  <path fill="#00ead5" d="M16 2v1h1v1h-1V3h-1V2h-1V1h1v1h1z"></path>
  <path fill="#15ffff" d="M29 2h-1V1h1v1z"></path>
  <path fill="#0ff" d="M29 2h1v2h-1V3h-1V2h1z"></path>
  <path fill="#00ffea" d="M28 2v1h-1V2h1z"></path>
  <path fill="#00eaea" d="M25 2h2v1h2v1H19V3h-1v1h-1V3h-1V2h9z"></path>
  <path fill="#15ffff" d="M2 3v1H1V3h1z"></path>
  <path fill="#00d5bf" d="M4 3v1h11V3h1v1h2v2H3V5H2V4h1V3h1z"></path>
  <path fill="#00ffea" d="M20 4v1h-1V4h-1V3h1v1h1z"></path>
  <path fill="#15ffff" d="M30 3h1v1h-1V3z"></path>
  <path fill="#00ead5" d="M2 4v1H1V4h1zm27 0v1h1v1h-1v1h-5V6h-1v1h-1V6h-2V4h9z"></path>
  <path fill="#00bfaa" d="M18 4h1v1h-1V4z"></path>
  <path fill="#00ffea" d="M30 4v1h-1V4h1z"></path>
  <path fill="#0ff" d="M31 4v1h-1V4h1z"></path>
  <path fill="#00d5aa" d="M8 6v2h1v1H8V8H6V7H2V5h1v1h5z"></path>
  <path fill="#0ff" d="M1 5v1H0V5h1z"></path>
  <path fill="#006a6a" d="M19 5v1h-1V5h1z"></path>
  <path fill="#15ffff" d="M32 5v1h-1V5h1z"></path>
  <path fill="#00eabf" d="M2 5v1H1V5h1z"></path>
  <path fill="#00556a" d="M19 5h1v1h-1V5z"></path>
  <path fill="#00ffea" d="M31 5v1h1v1h-1V6h-1V5h1z"></path>
  <path fill="#00d5aa" d="M19 6v2h-1V7h-6v1h-2V7H9V6h10z"></path>
  <path fill="#2b2b2b" d="M20 6v1h1v1h1v1h1v1h1v3h1v8h1v1h1v3h-1v-1h-5v1h-2v1h-6v-1h-2v-1H9v-1H7v-1H6v-1H5v-1h1v1h3v1h6v-1h2v-2h-1v-1h-2v-1h-1v-1h-1v-2h-1v-1h-1v-1H9v-1h1v1h1v1h1v1h2v-1h-1v-2h1v1h1v1h1v1h1v1h2v1h2V8h-1V7h-1V6h1zm-5 8h-1v1h1v-1z"></path>
  <path fill="#00eabf" d="M30 6v2h1v2h-1V8h-6v1h-1V6h1v1h5V6h1z"></path>
  <path fill="#00ead5" d="M1 6v1H0V6h1z"></path>
  <path fill="#00d5bf" d="M2 6v1H1V6h1z"></path>
  <path fill="#00bfaa" d="M9 6v1H8V6h1z"></path>
  <path fill="#004055" d="M21 6v1h-1V6h1z"></path>
  <path fill="#00d5bf" d="M22 7h-1V6h1v1z"></path>
  <path fill="#00ead5" d="M31 7v1h-1V6h1v1z"></path>
  <path fill="#00d5aa" d="M2 7v1H1V7h1z"></path>
  <path fill="#00bf95" d="M9 7v1H8V7h1z"></path>
  <path fill="#00d5bf" d="M1 7v2H0V7h1z"></path>
  <path fill="#00bfaa" d="M2 7h4v1H2V7z"></path>
  <path fill="teal" d="M10 8H9V7h1v1z"></path>
  <path fill="#00bfaa" d="M18 8h-6V7h6v1z"></path>
  <path fill="teal" d="M20 8h-1V7h1v1z"></path>
  <path fill="#004055" d="M22 7v1h-1V7h1z"></path>
  <path fill="#00d5bf" d="M23 7v1h-1V7h1z"></path>
  <path fill="#00eaea" d="M32 7v1h-1V7h1z"></path>
  <path fill="#00bf95" d="M1 8h5v1H5v1H1V8z"></path>
  <path fill="#009580" d="M10 8v1H9V8h1z"></path>
  <path fill="#002b40" d="M21 9h-1V8h1v1z"></path>
  <path fill="teal" d="M7 8v1H6V8h1z"></path>
  <path fill="#00bf95" d="M8 9H7V8h1v1z"></path>
  <path fill="#055" d="M11 8v1h-1V8h1z"></path>
  <path fill="#00bf95" d="M12 8h8v1h-1v1h1v1h-1v-1h-4v1h-1v-1h-2V9h-1V8h1z"></path>
  <path fill="#055" d="M23 8v1h-1V8h1z"></path>
  <path fill="#00d5bf" d="M30 9h-6V8h6v1z"></path>
  <path fill="#00ead5" d="M32 8v2h-1V8h1z"></path>
  <path fill="#00d595" d="M6 9v1h1v1H6v-1H5V9h1z"></path>
  <path fill="#00bf95" d="M9 9v1H8V9h1z"></path>
  <path fill="#004040" d="M11 9h1v2h-1V9z"></path>
  <path fill="#00d595" d="M20 9v1h-1V9h1z"></path>
  <path fill="#00d5aa" d="M24 9h6v1h1v1h-6v-1h-1V9zM1 9v2H0V9h1z"></path>
  <path fill="#00956a" d="M7 9v1H6V9h1z"></path>
  <path fill="#055" d="M8 9v1H7V9h1z"></path>
  <path fill="#00d595" d="M10 9v1h1v1h-1v-1H9V9h1z"></path>
  <path fill="#006a55" d="M11 9v1h-1V9h1z"></path>
  <path fill="#055" d="M21 9v1h-1V9h1z"></path>
  <path fill="#00806a" d="M24 9v1h-1V9h1z"></path>
  <path fill="#00bf80" d="M5 10h1v1h2v1h1v1H1v-3h4z"></path>
  <path fill="#002b40" d="M8 10h1v1H8v-1z"></path>
  <path fill="#006a55" d="M8 10v1H7v-1h1z"></path>
  <path fill="#00aa80" d="M10 11H9v-1h1v1z"></path>
  <path fill="#002b40" d="M12 10h1v1h-1v-1z"></path>
  <path fill="#00aa80" d="M14 11h-1v-1h1v1z"></path>
  <path fill="#00bf80" d="M20 11v2h-1v-1h-1v1h1v1h1v1h-1v-1h-1v-1h-2v-1h-1v-2h4v1h1z"></path>
  <path fill="#00806a" d="M21 10v1h-1v-1h1z"></path>
  <path fill="#00bf95" d="M25 11h-1v-1h1v1z"></path>
  <path fill="#00eabf" d="M32 10v1h-1v-1h1z"></path>
  <path fill="#00d5bf" d="M32 11v1h-1v-1h1z"></path>
  <path fill="#00bf80" d="M12 11v1h-1v-1h1z"></path>
  <path fill="#002b2b" d="M12 11h1v1h-1v-1z"></path>
  <path fill="#00d595" d="M31 11v2h-5v-1h-1v-1h6zM1 11v1H0v-1h1z"></path>
  <path fill="#005540" d="M9 11v1H8v-1h1z"></path>
  <path fill="#00956a" d="M11 11v1h-1v-1h1zm4 0v1h-1v-1h1zm6 0v1h-1v-1h1z"></path>
  <path fill="#006a55" d="M25 11v1h-1v-1h1zm-13 1v1h-1v-1h1z"></path>
  <path fill="#00aa6a" d="M13 12v1h-1v-1h1z"></path>
  <path fill="#00152b" d="M25 12v1h-1v-1h1z"></path>
  <path fill="#00bf95" d="M1 12v8H0v-8h1z"></path>
  <path fill="#004040" d="M10 13H9v-1h1v1z"></path>
  <path fill="#00806a" d="M16 13h-1v-1h1v1z"></path>
  <path fill="#00aa80" d="M19 13h-1v-1h1v1z"></path>
  <path fill="#00aa6a" d="M21 12v1h-1v-1h1z"></path>
  <path fill="#00bf80" d="M26 13h-1v-1h1v1z"></path>
  <path fill="#00d5aa" d="M32 12v2h-1v-2h1z"></path>
  <path fill="#002b40" d="M11 14h-1v-1h1v1z"></path>
  <path fill="#00d580" d="M31 13v1h-1v-1h1z"></path>
  <path fill="#00aa80" d="M9 13h1v2h1v1h1v1h1v1h1v1h-1v-1h-1v-1H5v1h1v1H5v-1H3v2h1v1h1v1H4v-1H3v-1H2v1H1v-8h8z"></path>
  <path fill="#00956a" d="M20 13h1v2h-1v-2z"></path>
  <path fill="#004040" d="M12 13h1v1h-1v-1z"></path>
  <path fill="#006a55" d="M13 14v-1h1v1h-1z"></path>
  <path fill="#055" d="M17 13v1h-1v-1h1z"></path>
  <path fill="#00aa80" d="M18 14h-1v-1h1v1zm2-1v1h-1v-1h1z"></path>
  <path fill="#00806a" d="M26 13v1h-1v-1h1z"></path>
  <path fill="#00d580" d="M27 13v2h-1v-2h1z"></path>
  <path fill="#00bf80" d="M30 13v1h1v3h-4v-1h-1v-1h1v-2h3z"></path>
  <path fill="#00d595" d="M32 14v2h-1v-2h1z"></path>
  <path fill="#00152b" d="M11 14h1v1h-1v-1z"></path>
  <path fill="#055" d="M26 14v1h-1v-1h1z"></path>
  <path fill="#00956a" d="M11 14v1h1v1h-1v-1h-1v-1h1z"></path>
  <path fill="#002b2b" d="M14 14h1v1h-1v-1z"></path>
  <path fill="#002b40" d="M17 14h1v1h-1v-1z"></path>
  <path fill="#00956a" d="M19 15h-1v-1h1v1z"></path>
  <path fill="#004040" d="M26 15v1h-1v-1h1z"></path>
  <path fill="#006a55" d="M20 15v1h-1v-1h1z"></path>
  <path fill="#055" d="M21 15v1h-1v-1h1z"></path>
  <path fill="#002b40" d="M26 16v2h-1v-2h1z"></path>
  <path fill="#00806a" d="M13 17h-1v-1h1v1z"></path>
  <path fill="#00aa80" d="M31 17v3h1v6h-1v-5h-2v-1h-1v2h-1v-2h-1v-4h1v1h4z"></path>
  <path fill="#00bf95" d="M32 16v3h-1v-3h1z"></path>
  <path fill="#009580" d="M14 19h2v1h-1v1H9v-1H6v-2H5v-1h7v1h1v1h1z"></path>
  <path fill="#00806a" d="M14 18h-1v-1h1v1zM4 18v1H3v-1h1z"></path>
  <path fill="#009580" d="M5 19H4v1H3v-1h1v-1h1v1z"></path>
  <path fill="#00806a" d="M15 18v1h-1v-1h1z"></path>
  <path fill="#00152b" d="M16 19h-1v-1h1v1z"></path>
  <path fill="#004040" d="M26 18v1h-1v-1h1z"></path>
  <path fill="#006a6a" d="M6 19v1H5v-1h1z"></path>
  <path fill="#002b40" d="M17 20h-1v-1h1v1z"></path>
  <path fill="#055" d="M25 19h1v1h-1v-1z"></path>
  <path fill="#00bf80" d="M32 19v1h-1v-1h1z"></path>
  <path fill="#004040" d="M5 19v1H4v-1h1z"></path>
  <path fill="#00aa95" d="M1 20v4H0v-4h1z"></path>
  <path fill="#004040" d="M17 20v1h-1v-1h1z"></path>
  <path fill="#00152b" d="M26 20v1h-1v-1h1z"></path>
  <path fill="#009580" d="M5 22h1v1h1v1h2v1h1v1H9v-1H2v3h1v1h1v2H3v-1H2v-1H1v-8h1v-1h1v1h1v1h1z"></path>
  <path fill="#00806a" d="M5 20v1H4v-1h1z"></path>
  <path fill="#002b40" d="M7 20v1H6v-1h1z"></path>
  <path fill="#006a55" d="M8 20v1H7v-1h1z"></path>
  <path fill="#00806a" d="M9 21H8v-1h1v1zm7-1v1h-1v-1h1z"></path>
  <path fill="#009580" d="M27 21h-1v-1h1v1zm4 5v1h-1v-2h-1v1h-1v-6h1v1h2v5z"></path>
  <path fill="#00806a" d="M6 22H5v-1h1v1z"></path>
  <path fill="#002b40" d="M10 21v1H9v-1h1z"></path>
  <path fill="#004040" d="M11 21v1h-1v-1h1z"></path>
  <path fill="#004055" d="M13 21v1h-2v-1h2z"></path>
  <path fill="#002b40" d="M15 21v1h-2v-1h2z"></path>
  <path fill="#004055" d="M27 21v1h-1v-1h1z"></path>
  <path fill="#00806a" d="M7 23H6v-1h1v1z"></path>
  <path fill="teal" d="M28 22v1h-1v-1h1z"></path>
  <path fill="#004040" d="M9 24H8v-1h1v1z"></path>
  <path fill="#00556a" d="M28 23v1h-1v-1h1z"></path>
  <path fill="teal" d="M8 23v1H7v-1h1z"></path>
  <path fill="#004055" d="M28 24v2h-2v-1h1v-1h1z"></path>
  <path fill="#00aa80" d="M1 24v3H0v-3h1z"></path>
  <path fill="#006a6a" d="M10 24v1H9v-1h1z"></path>
  <path fill="#002b40" d="M11 25h-1v-1h1v1zm11-1v1h-1v-1h1z"></path>
  <path fill="#055" d="M23 24v1h-1v-1h1z"></path>
  <path fill="#006a6a" d="M25 24v1h-2v-1h2z"></path>
  <path fill="#004055" d="M26 25h-1v-1h1v1z"></path>
  <path fill="#004040" d="M13 26h-1v-1h1v1z"></path>
  <path fill="#009580" d="M25 25h1v1h-4v-1h3z"></path>
  <path fill="teal" d="M10 25h1v1h1v1h1v-1h1v1h4v-1h3v-1h1v1h5v1h1v-1h1v-1h1v3h-1v1h-1v1h-1v1h-4v1H7v-1H4v-2H3v-1H2v-3h7v1h1v-1z"></path>
  <path fill="#006a6a" d="M11 25h1v1h-1v-1z"></path>
  <path fill="#002b40" d="M20 25v1h-1v-1h1z"></path>
  <path fill="#006a6a" d="M21 25v1h-1v-1h1z"></path>
  <path fill="#00d595" d="M32 26v1h-1v-1h1z"></path>
  <path fill="#009580" d="M12 26h1v1h-1v-1z"></path>
  <path fill="#006a6a" d="M15 26v1h-1v-1h1z"></path>
  <path fill="#00556a" d="M17 26v1h-2v-1h2z"></path>
  <path fill="#006a6a" d="M18 26v1h-1v-1h1z"></path>
  <path fill="#00806a" d="M28 26v1h-1v-1h1z"></path>
  <path fill="#00aa95" d="M31 27v1h-1v-1h1z"></path>
  <path fill="#00d5aa" d="M31 28v1h-1v-1h1z"></path>
  <path fill="#009580" d="M30 28v1h-1v1h-1v1h-1v-1h1v-1h1v-1h1z"></path>
  <path fill="#00bf95" d="M30 29v1h-1v-1h1z"></path>
  <path fill="#00d595" d="M29 30v1h-1v-1h1z"></path>
  <path fill="#009580" d="M7 32H5v-1h2v1z"></path>
  <path fill="#00bf80" d="M27 31v1h-1v-1h1z"></path>
</svg>
